<svg width="20" height="12" viewBox="0 0 20 12" fill="none" xmlns="http://www.w3.org/2000/svg">
<mask id="path-1-inside-1_36895_2386" fill="white">
<path d="M19.4141 7.25258H18.7766L16.7349 2.31418C17.0208 2.27527 17.2413 2.03082 17.2413 1.73426C17.2413 1.41066 16.979 1.14832 16.6554 1.14832H11.6177C11.3769 0.479531 10.7363 0 9.98559 0C9.23488 0 8.59422 0.47957 8.3534 1.14832H3.34465C3.02105 1.14832 2.75871 1.41066 2.75871 1.73426C2.75871 2.03082 2.97926 2.27527 3.26512 2.31418L1.22344 7.25258H0.585938C0.262344 7.25258 0 7.51492 0 7.83852C0 10.1207 1.85668 11.9773 4.13883 11.9773C6.42098 11.9773 8.27766 10.1207 8.27766 7.83852C8.27766 7.51492 8.01531 7.25258 7.69172 7.25258H7.05418L5.01504 2.3202H8.3534C8.59422 2.98898 9.23484 3.46852 9.98559 3.46852C10.7363 3.46852 11.3769 2.98898 11.6177 2.3202H14.985L12.9459 7.25258H12.3083C11.9847 7.25258 11.7224 7.51492 11.7224 7.83852C11.7224 10.1207 13.5791 11.9773 15.8612 11.9773C18.1434 11.9773 20 10.1207 20 7.83852C20 7.51492 19.7377 7.25258 19.4141 7.25258ZM4.13883 10.8055C2.70332 10.8055 1.5027 9.78082 1.22996 8.42445H7.0477C6.77496 9.78082 5.57434 10.8055 4.13883 10.8055ZM5.78613 7.25258H2.49152L4.13883 3.26805L5.78613 7.25258ZM9.98555 2.29664C9.67543 2.29664 9.42316 2.04438 9.42316 1.73426C9.42316 1.42414 9.67543 1.17188 9.98555 1.17188C10.2956 1.17188 10.5479 1.42414 10.5479 1.73426C10.5479 2.04438 10.2957 2.29664 9.98555 2.29664ZM15.8612 3.26805L17.5085 7.25258H14.2139L15.8612 3.26805ZM15.8612 10.8055C14.4257 10.8055 13.225 9.78082 12.9523 8.42445H18.77C18.4973 9.78082 17.2966 10.8055 15.8612 10.8055Z"/>
</mask>
<path d="M19.4141 7.25258H18.7766L16.7349 2.31418C17.0208 2.27527 17.2413 2.03082 17.2413 1.73426C17.2413 1.41066 16.979 1.14832 16.6554 1.14832H11.6177C11.3769 0.479531 10.7363 0 9.98559 0C9.23488 0 8.59422 0.47957 8.3534 1.14832H3.34465C3.02105 1.14832 2.75871 1.41066 2.75871 1.73426C2.75871 2.03082 2.97926 2.27527 3.26512 2.31418L1.22344 7.25258H0.585938C0.262344 7.25258 0 7.51492 0 7.83852C0 10.1207 1.85668 11.9773 4.13883 11.9773C6.42098 11.9773 8.27766 10.1207 8.27766 7.83852C8.27766 7.51492 8.01531 7.25258 7.69172 7.25258H7.05418L5.01504 2.3202H8.3534C8.59422 2.98898 9.23484 3.46852 9.98559 3.46852C10.7363 3.46852 11.3769 2.98898 11.6177 2.3202H14.985L12.9459 7.25258H12.3083C11.9847 7.25258 11.7224 7.51492 11.7224 7.83852C11.7224 10.1207 13.5791 11.9773 15.8612 11.9773C18.1434 11.9773 20 10.1207 20 7.83852C20 7.51492 19.7377 7.25258 19.4141 7.25258ZM4.13883 10.8055C2.70332 10.8055 1.5027 9.78082 1.22996 8.42445H7.0477C6.77496 9.78082 5.57434 10.8055 4.13883 10.8055ZM5.78613 7.25258H2.49152L4.13883 3.26805L5.78613 7.25258ZM9.98555 2.29664C9.67543 2.29664 9.42316 2.04438 9.42316 1.73426C9.42316 1.42414 9.67543 1.17188 9.98555 1.17188C10.2956 1.17188 10.5479 1.42414 10.5479 1.73426C10.5479 2.04438 10.2957 2.29664 9.98555 2.29664ZM15.8612 3.26805L17.5085 7.25258H14.2139L15.8612 3.26805ZM15.8612 10.8055C14.4257 10.8055 13.225 9.78082 12.9523 8.42445H18.77C18.4973 9.78082 17.2966 10.8055 15.8612 10.8055Z" fill="#282739"/>
<path d="M18.7766 7.25258L15.08 8.78081L16.1019 11.2526H18.7766V7.25258ZM16.7349 2.31418L16.1956 -1.64929L11.0571 -0.950023L13.0384 3.84241L16.7349 2.31418ZM11.6177 1.14832L7.85429 2.50348L8.80665 5.14832H11.6177V1.14832ZM8.3534 1.14832V5.14832H11.1644L12.1168 2.50355L8.3534 1.14832ZM3.26512 2.31418L6.96166 3.84244L8.94296 -0.949928L3.80455 -1.64928L3.26512 2.31418ZM1.22344 7.25258V11.2526H3.89809L4.91998 8.78084L1.22344 7.25258ZM7.05418 7.25258L3.35762 8.7808L4.3795 11.2526H7.05418V7.25258ZM5.01504 2.3202V-1.6798H-0.966991L1.31848 3.84842L5.01504 2.3202ZM8.3534 2.3202L12.1168 0.965037L11.1645 -1.6798H8.3534V2.3202ZM11.6177 2.3202V-1.6798H8.80665L7.85429 0.965037L11.6177 2.3202ZM14.985 2.3202L18.6816 3.84842L20.967 -1.6798H14.985V2.3202ZM12.9459 7.25258V11.2526H15.6205L16.6424 8.7808L12.9459 7.25258ZM1.22996 8.42445V4.42445H-3.65441L-2.69155 9.21298L1.22996 8.42445ZM7.0477 8.42445L10.9692 9.21298L11.9321 4.42445H7.0477V8.42445ZM5.78613 7.25258V11.2526H11.7682L9.48268 5.72433L5.78613 7.25258ZM2.49152 7.25258L-1.20502 5.72433L-3.49054 11.2526H2.49152V7.25258ZM4.13883 3.26805L7.83538 1.7398L4.13883 -7.20148L0.44228 1.7398L4.13883 3.26805ZM15.8612 3.26805L19.5577 1.7398L15.8612 -7.20148L12.1646 1.7398L15.8612 3.26805ZM17.5085 7.25258V11.2526H23.4905L21.205 5.72433L17.5085 7.25258ZM14.2139 7.25258L10.5173 5.72433L8.2318 11.2526H14.2139V7.25258ZM12.9523 8.42445V4.42445H8.06793L9.0308 9.21298L12.9523 8.42445ZM18.77 8.42445L22.6915 9.21298L23.6544 4.42445H18.77V8.42445ZM19.4141 3.25258H18.7766V11.2526H19.4141V3.25258ZM22.4731 5.72434L20.4315 0.785946L13.0384 3.84241L15.08 8.78081L22.4731 5.72434ZM17.2743 6.27765C19.5083 5.97364 21.2413 4.06599 21.2413 1.73426H13.2413C13.2413 -0.00434823 14.5334 -1.42309 16.1956 -1.64929L17.2743 6.27765ZM21.2413 1.73426C21.2413 -0.798475 19.1881 -2.85168 16.6554 -2.85168V5.14832C14.7698 5.14832 13.2413 3.6198 13.2413 1.73426H21.2413ZM16.6554 -2.85168H11.6177V5.14832H16.6554V-2.85168ZM15.3812 -0.206838C14.5889 -2.40722 12.4809 -4 9.98559 -4V4C8.99163 4 8.16497 3.36628 7.85429 2.50348L15.3812 -0.206838ZM9.98559 -4C7.49022 -4 5.38231 -2.40718 4.58997 -0.206908L12.1168 2.50355C11.8061 3.36633 10.9795 4 9.98559 4V-4ZM8.3534 -2.85168H3.34465V5.14832H8.3534V-2.85168ZM3.34465 -2.85168C0.811916 -2.85168 -1.24129 -0.798475 -1.24129 1.73426H6.75871C6.75871 3.6198 5.23019 5.14832 3.34465 5.14832V-2.85168ZM-1.24129 1.73426C-1.24129 4.06623 0.492035 5.97363 2.72568 6.27764L3.80455 -1.64928C5.46648 -1.42309 6.75871 -0.00458575 6.75871 1.73426H-1.24129ZM-0.431425 0.78592L-2.4731 5.72432L4.91998 8.78084L6.96166 3.84244L-0.431425 0.78592ZM1.22344 3.25258H0.585938V11.2526H1.22344V3.25258ZM0.585938 3.25258C-1.9468 3.25258 -4 5.30578 -4 7.83852H4C4 9.72406 2.47148 11.2526 0.585938 11.2526V3.25258ZM-4 7.83852C-4 12.3298 -0.352459 15.9773 4.13883 15.9773V7.97734C4.11514 7.97734 4.10112 7.9733 4.08983 7.96852C4.07582 7.96259 4.05865 7.95192 4.04204 7.93531C4.02542 7.91869 4.01476 7.90152 4.00882 7.88752C4.00404 7.87623 4 7.8622 4 7.83852H-4ZM4.13883 15.9773C8.63012 15.9773 12.2777 12.3298 12.2777 7.83852H4.27766C4.27766 7.8622 4.27362 7.87623 4.26883 7.88752C4.2629 7.90152 4.25223 7.91869 4.23562 7.93531C4.21901 7.95192 4.20183 7.96259 4.18783 7.96852C4.17654 7.9733 4.16251 7.97734 4.13883 7.97734V15.9773ZM12.2777 7.83852C12.2777 5.30578 10.2245 3.25258 7.69172 3.25258V11.2526C5.80617 11.2526 4.27766 9.72406 4.27766 7.83852H12.2777ZM7.69172 3.25258H7.05418V11.2526H7.69172V3.25258ZM10.7507 5.72435L8.71159 0.791969L1.31848 3.84842L3.35762 8.7808L10.7507 5.72435ZM5.01504 6.3202H8.3534V-1.6798H5.01504V6.3202ZM4.58995 3.67535C5.38229 5.87578 7.49024 7.46852 9.98559 7.46852V-0.531485C10.9795 -0.531485 11.8061 0.102184 12.1168 0.965037L4.58995 3.67535ZM9.98559 7.46852C12.4809 7.46852 14.5889 5.87573 15.3812 3.67535L7.85429 0.965037C8.16497 0.102235 8.99163 -0.531485 9.98559 -0.531485V7.46852ZM11.6177 6.3202H14.985V-1.6798H11.6177V6.3202ZM11.2884 0.79197L9.2493 5.72435L16.6424 8.7808L18.6816 3.84842L11.2884 0.79197ZM12.9459 3.25258H12.3083V11.2526H12.9459V3.25258ZM12.3083 3.25258C9.77559 3.25258 7.72238 5.30578 7.72238 7.83852H15.7224C15.7224 9.72406 14.1939 11.2526 12.3083 11.2526V3.25258ZM7.72238 7.83852C7.72238 12.3298 11.3699 15.9773 15.8612 15.9773V7.97734C15.8375 7.97734 15.8235 7.9733 15.8122 7.96852C15.7982 7.96259 15.781 7.95192 15.7644 7.93531C15.7478 7.91869 15.7371 7.90152 15.7312 7.88752C15.7264 7.87623 15.7224 7.8622 15.7224 7.83852H7.72238ZM15.8612 15.9773C20.3525 15.9773 24 12.3298 24 7.83852H16C16 7.86221 15.996 7.87625 15.9912 7.88754C15.9852 7.90155 15.9746 7.91872 15.958 7.93533C15.9414 7.95193 15.9242 7.96259 15.9102 7.96852C15.8989 7.9733 15.8849 7.97734 15.8612 7.97734V15.9773ZM24 7.83852C24 5.30578 21.9468 3.25258 19.4141 3.25258V11.2526C17.5285 11.2526 16 9.72406 16 7.83852H24ZM4.13883 6.80547C4.64856 6.80547 5.05659 7.16408 5.15147 7.63593L-2.69155 9.21298C-2.0512 12.3976 0.758084 14.8055 4.13883 14.8055V6.80547ZM1.22996 12.4245H7.0477V4.42445H1.22996V12.4245ZM3.12619 7.63593C3.22107 7.16408 3.6291 6.80547 4.13883 6.80547V14.8055C7.51957 14.8055 10.3289 12.3976 10.9692 9.21298L3.12619 7.63593ZM5.78613 3.25258H2.49152V11.2526H5.78613V3.25258ZM6.18807 8.78082L7.83538 4.79629L0.44228 1.7398L-1.20502 5.72433L6.18807 8.78082ZM0.44228 4.79629L2.08958 8.78082L9.48268 5.72433L7.83538 1.7398L0.44228 4.79629ZM9.98555 -1.70336C11.8846 -1.70336 13.4232 -0.164766 13.4232 1.73426H5.42316C5.42316 4.25352 7.46629 6.29664 9.98555 6.29664V-1.70336ZM13.4232 1.73426C13.4232 3.63328 11.8846 5.17188 9.98555 5.17188V-2.82812C7.46629 -2.82812 5.42316 -0.784996 5.42316 1.73426H13.4232ZM9.98555 5.17188C8.08667 5.17188 6.54793 3.63346 6.54793 1.73426H14.5479C14.5479 -0.785177 12.5046 -2.82812 9.98555 -2.82812V5.17188ZM6.54793 1.73426C6.54793 -0.164766 8.08653 -1.70336 9.98555 -1.70336V6.29664C12.5048 6.29664 14.5479 4.25352 14.5479 1.73426H6.54793ZM12.1646 4.79629L13.8119 8.78082L21.205 5.72433L19.5577 1.7398L12.1646 4.79629ZM17.5085 3.25258H14.2139V11.2526H17.5085V3.25258ZM17.9104 8.78082L19.5577 4.79629L12.1646 1.7398L10.5173 5.72433L17.9104 8.78082ZM15.8612 6.80547C16.3709 6.80547 16.7789 7.16408 16.8738 7.63593L9.0308 9.21298C9.67114 12.3976 12.4804 14.8055 15.8612 14.8055V6.80547ZM12.9523 12.4245H18.77V4.42445H12.9523V12.4245ZM14.8485 7.63593C14.9434 7.16405 15.3514 6.80547 15.8612 6.80547V14.8055C19.2418 14.8055 22.0512 12.3976 22.6915 9.21298L14.8485 7.63593Z" fill="#282739" mask="url(#path-1-inside-1_36895_2386)"/>
</svg>
