<svg width="11" height="18" viewBox="0 0 11 18" fill="none" xmlns="http://www.w3.org/2000/svg">
<path d="M10.5013 0.260732C10.418 0.101188 10.2529 0 10.0728 0H3.00726C2.79359 0 2.60529 0.141421 2.54415 0.346092L0.0202 8.80412C-0.0234768 8.95043 0.00455365 9.10792 0.0957736 9.23032C0.186994 9.35277 0.330711 9.42405 0.483308 9.42405H4.44497L2.84899 17.4212C2.80253 17.6538 2.93169 17.8862 3.15388 17.9691C3.20928 17.9898 3.26642 18 3.32279 18C3.4923 18 3.6548 17.9106 3.74288 17.7559L9.96699 6.82597C10.0522 6.67634 10.0513 6.49172 9.96481 6.34287C9.8783 6.19402 9.71918 6.10147 9.54701 6.10147H6.74444L10.4692 0.760267C10.5722 0.612563 10.5846 0.420397 10.5013 0.260732Z" fill="#5D6C7B"/>
</svg>
